<svg width="1825" height="710" viewBox="0 0 1825 710" fill="none" xmlns="http://www.w3.org/2000/svg" shape-rendering="geometricPrecision">
<path d="M232.153 398L205.953 292H226.153L250.953 398H232.153ZM243.353 398L268.353 292H285.353L260.553 398H243.353ZM300.953 398L276.153 292H294.153L319.753 398H300.953ZM312.153 398L336.153 292H355.553L329.353 398H312.153ZM413.469 400C404.002 400 395.602 397.733 388.269 393.2C381.069 388.667 375.402 382.267 371.269 374C367.135 365.733 365.069 356.067 365.069 345C365.069 333.8 367.135 324.133 371.269 316C375.402 307.733 381.069 301.333 388.269 296.8C395.602 292.267 404.002 290 413.469 290C423.069 290 431.469 292.267 438.669 296.8C446.002 301.333 451.735 307.733 455.869 316C460.002 324.133 462.069 333.8 462.069 345C462.069 356.067 460.002 365.733 455.869 374C451.735 382.267 446.002 388.667 438.669 393.2C431.469 397.733 423.069 400 413.469 400ZM413.469 382C421.869 382 428.602 379.067 433.669 373.2C438.735 367.2 441.269 357.8 441.269 345C441.269 332.2 438.735 322.867 433.669 317C428.602 311 421.869 308 413.469 308C405.202 308 398.535 311 393.469 317C388.402 322.867 385.869 332.2 385.869 345C385.869 357.8 388.402 367.2 393.469 373.2C398.535 379.067 405.202 382 413.469 382ZM482.578 398V292H502.578V398H482.578ZM496.378 342.2C496.378 331.533 497.978 322.333 501.178 314.6C504.511 306.733 509.045 300.667 514.778 296.4C520.645 292.133 527.445 290 535.178 290V312.2H528.778C520.911 312.2 514.578 314.333 509.778 318.6C504.978 322.867 502.578 329.867 502.578 339.6L496.378 342.2ZM588.909 400C580.776 400 573.509 397.8 567.109 393.4C560.709 389 555.709 382.733 552.109 374.6C548.509 366.333 546.709 356.467 546.709 345C546.709 333.533 548.509 323.733 552.109 315.6C555.709 307.333 560.709 301 567.109 296.6C573.509 292.2 580.776 290 588.909 290C600.109 290 609.109 294.067 615.909 302.2C622.709 310.2 626.109 321.533 626.109 336.2V353.8C626.109 368.467 622.709 379.867 615.909 388C609.109 396 600.109 400 588.909 400ZM594.509 382.4C602.509 382.4 608.976 379.467 613.909 373.6C618.976 367.6 621.509 358.067 621.509 345C621.509 331.933 618.976 322.467 613.909 316.6C608.976 310.6 602.509 307.6 594.509 307.6C586.509 307.6 579.976 310.6 574.909 316.6C569.976 322.467 567.509 331.933 567.509 345C567.509 358.067 569.976 367.6 574.909 373.6C579.976 379.467 586.509 382.4 594.509 382.4ZM620.509 398V373.4L623.509 345L620.509 316.4V255H640.509V398H620.509ZM703.163 400C691.163 400 681.563 397.6 674.363 392.8C667.163 387.867 662.096 380.667 659.163 371.2L677.963 365.2C680.229 371.867 683.563 376.667 687.963 379.6C692.363 382.4 697.896 383.8 704.563 383.8C710.563 383.8 715.363 382.667 718.963 380.4C722.696 378 724.563 374.667 724.563 370.4C724.563 366.267 723.096 363.067 720.163 360.8C717.229 358.4 713.429 356.467 708.763 355C704.096 353.4 699.096 351.867 693.763 350.4C688.563 348.8 683.629 346.867 678.963 344.6C674.296 342.333 670.496 339.267 667.563 335.4C664.629 331.4 663.163 326.2 663.163 319.8C663.163 311.533 666.563 304.533 673.363 298.8C680.163 292.933 689.896 290 702.563 290C713.496 290 722.296 292.4 728.963 297.2C735.629 302 740.429 309 743.363 318.2L725.163 324.4C722.763 317.867 719.563 313.2 715.563 310.4C711.696 307.6 706.829 306.2 700.963 306.2C695.229 306.2 690.763 307.333 687.563 309.6C684.496 311.733 682.962 314.533 682.962 318C682.962 321.6 684.429 324.467 687.363 326.6C690.296 328.6 694.096 330.333 698.763 331.8C703.429 333.133 708.363 334.6 713.563 336.2C718.896 337.8 723.896 339.867 728.563 342.4C733.229 344.8 737.029 348.133 739.963 352.4C742.896 356.667 744.363 362.2 744.363 369C744.363 377.667 740.763 385 733.563 391C726.496 397 716.363 400 703.163 400Z" fill="white"/>
<path d="M904.105 398V336.2C904.105 326.733 901.705 319.6 896.905 314.8C892.105 310 886.371 307.6 879.705 307.6C873.038 307.6 867.305 310 862.505 314.8C857.705 319.6 855.305 326.733 855.305 336.2H848.705C848.705 326.733 850.371 318.533 853.705 311.6C857.171 304.667 861.838 299.333 867.705 295.6C873.571 291.867 880.105 290 887.305 290C894.505 290 900.838 291.733 906.305 295.2C911.905 298.533 916.238 303.333 919.305 309.6C922.505 315.733 924.105 323.067 924.105 331.6V398H904.105ZM835.305 398V292H855.305V398H835.305ZM993.148 400C983.682 400 975.282 397.733 967.948 393.2C960.748 388.667 955.082 382.267 950.948 374C946.815 365.733 944.748 356.067 944.748 345C944.748 333.8 946.815 324.133 950.948 316C955.082 307.733 960.748 301.333 967.948 296.8C975.282 292.267 983.682 290 993.148 290C1002.75 290 1011.15 292.267 1018.35 296.8C1025.68 301.333 1031.42 307.733 1035.55 316C1039.68 324.133 1041.75 333.8 1041.75 345C1041.75 356.067 1039.68 365.733 1035.55 374C1031.42 382.267 1025.68 388.667 1018.35 393.2C1011.15 397.733 1002.75 400 993.148 400ZM993.148 382C1001.55 382 1008.28 379.067 1013.35 373.2C1018.42 367.2 1020.95 357.8 1020.95 345C1020.95 332.2 1018.42 322.867 1013.35 317C1008.28 311 1001.55 308 993.148 308C984.882 308 978.215 311 973.148 317C968.082 322.867 965.548 332.2 965.548 345C965.548 357.8 968.082 367.2 973.148 373.2C978.215 379.067 984.882 382 993.148 382ZM1099.26 400C1088.86 400 1080.72 397.267 1074.86 391.8C1069.12 386.2 1066.26 377.933 1066.26 367V270L1086.26 266V363.4C1086.26 369.533 1087.72 374.067 1090.66 377C1093.59 379.8 1097.86 381.2 1103.46 381.2C1106.12 381.2 1108.59 381 1110.86 380.6C1113.26 380.2 1115.59 379.733 1117.86 379.2V398C1115.06 398.667 1112.19 399.133 1109.26 399.4C1106.46 399.8 1103.12 400 1099.26 400ZM1051.26 309.4V292H1116.86V309.4H1051.26Z" fill="white"/>
<path d="M1236.78 400C1227.31 400 1218.98 397.733 1211.78 393.2C1204.58 388.667 1198.98 382.267 1194.98 374C1190.98 365.733 1188.98 356.067 1188.98 345C1188.98 333.8 1190.98 324.133 1194.98 316C1198.98 307.733 1204.58 301.333 1211.78 296.8C1218.98 292.267 1227.31 290 1236.78 290C1246.91 290 1255.64 292.667 1262.98 298C1270.44 303.2 1275.64 310.933 1278.58 321.2L1259.78 327.4C1257.64 320.467 1254.64 315.533 1250.78 312.6C1246.91 309.533 1241.91 308 1235.78 308C1228.04 308 1221.78 311 1216.98 317C1212.18 322.867 1209.78 332.2 1209.78 345C1209.78 357.8 1212.18 367.2 1216.98 373.2C1221.78 379.067 1228.04 382 1235.78 382C1241.91 382 1246.84 380.467 1250.58 377.4C1254.44 374.333 1257.31 369.333 1259.18 362.4L1278.58 368.2C1275.64 378.733 1270.44 386.667 1262.98 392C1255.64 397.333 1246.91 400 1236.78 400ZM1341.28 400C1331.81 400 1323.41 397.733 1316.08 393.2C1308.88 388.667 1303.21 382.267 1299.08 374C1294.95 365.733 1292.88 356.067 1292.88 345C1292.88 333.8 1294.95 324.133 1299.08 316C1303.21 307.733 1308.88 301.333 1316.08 296.8C1323.41 292.267 1331.81 290 1341.28 290C1350.88 290 1359.28 292.267 1366.48 296.8C1373.81 301.333 1379.55 307.733 1383.68 316C1387.81 324.133 1389.88 333.8 1389.88 345C1389.88 356.067 1387.81 365.733 1383.68 374C1379.55 382.267 1373.81 388.667 1366.48 393.2C1359.28 397.733 1350.88 400 1341.28 400ZM1341.28 382C1349.68 382 1356.41 379.067 1361.48 373.2C1366.55 367.2 1369.08 357.8 1369.08 345C1369.08 332.2 1366.55 322.867 1361.48 317C1356.41 311 1349.68 308 1341.28 308C1333.01 308 1326.35 311 1321.28 317C1316.21 322.867 1313.68 332.2 1313.68 345C1313.68 357.8 1316.21 367.2 1321.28 373.2C1326.35 379.067 1333.01 382 1341.28 382ZM1447.19 400C1439.06 400 1431.79 397.8 1425.39 393.4C1418.99 389 1413.99 382.733 1410.39 374.6C1406.79 366.333 1404.99 356.467 1404.99 345C1404.99 333.533 1406.79 323.733 1410.39 315.6C1413.99 307.333 1418.99 301 1425.39 296.6C1431.79 292.2 1439.06 290 1447.19 290C1458.39 290 1467.39 294.067 1474.19 302.2C1480.99 310.2 1484.39 321.533 1484.39 336.2V353.8C1484.39 368.467 1480.99 379.867 1474.19 388C1467.39 396 1458.39 400 1447.19 400ZM1452.79 382.4C1460.79 382.4 1467.26 379.467 1472.19 373.6C1477.26 367.6 1479.79 358.067 1479.79 345C1479.79 331.933 1477.26 322.467 1472.19 316.6C1467.26 310.6 1460.79 307.6 1452.79 307.6C1444.79 307.6 1438.26 310.6 1433.19 316.6C1428.26 322.467 1425.79 331.933 1425.79 345C1425.79 358.067 1428.26 367.6 1433.19 373.6C1438.26 379.467 1444.79 382.4 1452.79 382.4ZM1478.79 398V373.4L1481.79 345L1478.79 316.4V255H1498.79V398H1478.79ZM1568.24 400C1558.51 400 1549.98 397.733 1542.64 393.2C1535.31 388.667 1529.58 382.267 1525.44 374C1521.44 365.733 1519.44 356.067 1519.44 345C1519.44 333.4 1521.51 323.533 1525.64 315.4C1529.78 307.133 1535.44 300.867 1542.64 296.6C1549.98 292.2 1558.38 290 1567.84 290C1577.04 290 1585.11 292.2 1592.04 296.6C1599.11 300.867 1604.58 307.133 1608.44 315.4C1612.44 323.533 1614.44 333.4 1614.44 345C1614.44 346.067 1614.44 347.067 1614.44 348C1614.44 348.933 1614.38 350.2 1614.24 351.8H1535.84V336H1599.44L1593.64 345C1593.64 331.667 1591.31 322.067 1586.64 316.2C1581.98 310.2 1575.71 307.2 1567.84 307.2C1559.58 307.2 1552.91 310.2 1547.84 316.2C1542.78 322.067 1540.24 331.667 1540.24 345C1540.24 357.4 1542.71 366.533 1547.64 372.4C1552.71 378.267 1559.58 381.2 1568.24 381.2C1574.11 381.2 1579.11 379.933 1583.24 377.4C1587.51 374.733 1590.91 370.4 1593.44 364.4L1612.04 371.8C1608.58 380.733 1602.98 387.667 1595.24 392.6C1587.51 397.533 1578.51 400 1568.24 400Z" fill="white"/>
<path d="M1825 328.5L1702.75 399.081L1702.75 257.919L1825 328.5Z" fill="white"/>
<path d="M3.56248e-06 328.5L122.25 399.081L122.25 257.919L3.56248e-06 328.5Z" fill="white"/>
<mask id="path-6-inside-1_897_97" fill="white">
<path d="M477.5 0C657.821 0 804 146.179 804 326.5C804 399.533 780.02 466.963 739.506 521.352L761.959 709.586L586.46 634.375C552.383 646.435 515.708 653 477.5 653C297.179 653 151 506.821 151 326.5C151 146.179 297.179 0 477.5 0Z"/>
</mask>
<path d="M739.506 521.352L734.694 517.767L733.265 519.686L733.548 522.062L739.506 521.352ZM761.959 709.586L759.596 715.101L769.148 719.194L767.917 708.875L761.959 709.586ZM586.46 634.375L588.823 628.86L586.668 627.937L584.458 628.719L586.46 634.375ZM477.5 0V6C654.507 6 798 149.493 798 326.5H804H810C810 142.865 661.135 -6 477.5 -6V0ZM804 326.5H798C798 398.197 774.463 464.379 734.694 517.767L739.506 521.352L744.318 524.936C785.577 469.548 810 400.868 810 326.5H804ZM739.506 521.352L733.548 522.062L756.001 710.297L761.959 709.586L767.917 708.875L745.464 520.641L739.506 521.352ZM761.959 709.586L764.322 704.071L588.823 628.86L586.46 634.375L584.097 639.89L759.596 715.101L761.959 709.586ZM586.46 634.375L584.458 628.719C551.015 640.555 515.017 647 477.5 647V653V659C516.4 659 553.751 652.316 588.462 640.031L586.46 634.375ZM477.5 653V647C300.493 647 157 503.507 157 326.5H151H145C145 510.135 293.865 659 477.5 659V653ZM151 326.5H157C157 149.493 300.493 6 477.5 6V0V-6C293.865 -6 145 142.865 145 326.5H151Z" fill="white" mask="url(#path-6-inside-1_897_97)"/>
</svg>
